<?xml version="1.0" encoding="utf-8"?>
<svg xmlns="http://www.w3.org/2000/svg" xmlns:xlink="http://www.w3.org/1999/xlink" width="600" height="400" viewBox="0 0 2400 1600">
<defs>
  <clipPath id="clip820">
    <rect x="0" y="0" width="2400" height="1600"/>
  </clipPath>
</defs>
<path clip-path="url(#clip820)" d="M0 1600 L2400 1600 L2400 0 L0 0  Z" fill="#ffffff" fill-rule="evenodd" fill-opacity="1"/>
<defs>
  <clipPath id="clip821">
    <rect x="480" y="0" width="1681" height="1600"/>
  </clipPath>
</defs>
<path clip-path="url(#clip820)" d="M137.362 1486.45 L2352.76 1486.45 L2352.76 47.2441 L137.362 47.2441  Z" fill="#ffffff" fill-rule="evenodd" fill-opacity="1"/>
<defs>
  <clipPath id="clip822">
    <rect x="137" y="47" width="2216" height="1440"/>
  </clipPath>
</defs>
<polyline clip-path="url(#clip822)" style="stroke:#000000; stroke-linecap:round; stroke-linejoin:round; stroke-width:2; stroke-opacity:0.1; fill:none" points="195.874,1486.45 195.874,47.2441 "/>
<polyline clip-path="url(#clip822)" style="stroke:#000000; stroke-linecap:round; stroke-linejoin:round; stroke-width:2; stroke-opacity:0.1; fill:none" points="614.71,1486.45 614.71,47.2441 "/>
<polyline clip-path="url(#clip822)" style="stroke:#000000; stroke-linecap:round; stroke-linejoin:round; stroke-width:2; stroke-opacity:0.1; fill:none" points="1033.55,1486.45 1033.55,47.2441 "/>
<polyline clip-path="url(#clip822)" style="stroke:#000000; stroke-linecap:round; stroke-linejoin:round; stroke-width:2; stroke-opacity:0.1; fill:none" points="1452.38,1486.45 1452.38,47.2441 "/>
<polyline clip-path="url(#clip822)" style="stroke:#000000; stroke-linecap:round; stroke-linejoin:round; stroke-width:2; stroke-opacity:0.1; fill:none" points="1871.22,1486.45 1871.22,47.2441 "/>
<polyline clip-path="url(#clip822)" style="stroke:#000000; stroke-linecap:round; stroke-linejoin:round; stroke-width:2; stroke-opacity:0.1; fill:none" points="2290.06,1486.45 2290.06,47.2441 "/>
<polyline clip-path="url(#clip822)" style="stroke:#000000; stroke-linecap:round; stroke-linejoin:round; stroke-width:2; stroke-opacity:0.1; fill:none" points="137.362,1274.16 2352.76,1274.16 "/>
<polyline clip-path="url(#clip822)" style="stroke:#000000; stroke-linecap:round; stroke-linejoin:round; stroke-width:2; stroke-opacity:0.1; fill:none" points="137.362,999.331 2352.76,999.331 "/>
<polyline clip-path="url(#clip822)" style="stroke:#000000; stroke-linecap:round; stroke-linejoin:round; stroke-width:2; stroke-opacity:0.1; fill:none" points="137.362,724.5 2352.76,724.5 "/>
<polyline clip-path="url(#clip822)" style="stroke:#000000; stroke-linecap:round; stroke-linejoin:round; stroke-width:2; stroke-opacity:0.1; fill:none" points="137.362,449.669 2352.76,449.669 "/>
<polyline clip-path="url(#clip822)" style="stroke:#000000; stroke-linecap:round; stroke-linejoin:round; stroke-width:2; stroke-opacity:0.1; fill:none" points="137.362,174.839 2352.76,174.839 "/>
<polyline clip-path="url(#clip820)" style="stroke:#000000; stroke-linecap:round; stroke-linejoin:round; stroke-width:4; stroke-opacity:1; fill:none" points="137.362,1486.45 2352.76,1486.45 "/>
<polyline clip-path="url(#clip820)" style="stroke:#000000; stroke-linecap:round; stroke-linejoin:round; stroke-width:4; stroke-opacity:1; fill:none" points="195.874,1486.45 195.874,1467.55 "/>
<polyline clip-path="url(#clip820)" style="stroke:#000000; stroke-linecap:round; stroke-linejoin:round; stroke-width:4; stroke-opacity:1; fill:none" points="614.71,1486.45 614.71,1467.55 "/>
<polyline clip-path="url(#clip820)" style="stroke:#000000; stroke-linecap:round; stroke-linejoin:round; stroke-width:4; stroke-opacity:1; fill:none" points="1033.55,1486.45 1033.55,1467.55 "/>
<polyline clip-path="url(#clip820)" style="stroke:#000000; stroke-linecap:round; stroke-linejoin:round; stroke-width:4; stroke-opacity:1; fill:none" points="1452.38,1486.45 1452.38,1467.55 "/>
<polyline clip-path="url(#clip820)" style="stroke:#000000; stroke-linecap:round; stroke-linejoin:round; stroke-width:4; stroke-opacity:1; fill:none" points="1871.22,1486.45 1871.22,1467.55 "/>
<polyline clip-path="url(#clip820)" style="stroke:#000000; stroke-linecap:round; stroke-linejoin:round; stroke-width:4; stroke-opacity:1; fill:none" points="2290.06,1486.45 2290.06,1467.55 "/>
<path clip-path="url(#clip820)" d="M195.874 1517.37 Q192.263 1517.37 190.434 1520.93 Q188.628 1524.47 188.628 1531.6 Q188.628 1538.71 190.434 1542.27 Q192.263 1545.82 195.874 1545.82 Q199.508 1545.82 201.313 1542.27 Q203.142 1538.71 203.142 1531.6 Q203.142 1524.47 201.313 1520.93 Q199.508 1517.37 195.874 1517.37 M195.874 1513.66 Q201.684 1513.66 204.739 1518.27 Q207.818 1522.85 207.818 1531.6 Q207.818 1540.33 204.739 1544.94 Q201.684 1549.52 195.874 1549.52 Q190.064 1549.52 186.985 1544.94 Q183.929 1540.33 183.929 1531.6 Q183.929 1522.85 186.985 1518.27 Q190.064 1513.66 195.874 1513.66 Z" fill="#000000" fill-rule="nonzero" fill-opacity="1" /><path clip-path="url(#clip820)" d="M574.317 1544.91 L581.956 1544.91 L581.956 1518.55 L573.646 1520.21 L573.646 1515.95 L581.909 1514.29 L586.585 1514.29 L586.585 1544.91 L594.224 1544.91 L594.224 1548.85 L574.317 1548.85 L574.317 1544.91 Z" fill="#000000" fill-rule="nonzero" fill-opacity="1" /><path clip-path="url(#clip820)" d="M613.669 1517.37 Q610.057 1517.37 608.229 1520.93 Q606.423 1524.47 606.423 1531.6 Q606.423 1538.71 608.229 1542.27 Q610.057 1545.82 613.669 1545.82 Q617.303 1545.82 619.108 1542.27 Q620.937 1538.71 620.937 1531.6 Q620.937 1524.47 619.108 1520.93 Q617.303 1517.37 613.669 1517.37 M613.669 1513.66 Q619.479 1513.66 622.534 1518.27 Q625.613 1522.85 625.613 1531.6 Q625.613 1540.33 622.534 1544.94 Q619.479 1549.52 613.669 1549.52 Q607.858 1549.52 604.78 1544.94 Q601.724 1540.33 601.724 1531.6 Q601.724 1522.85 604.78 1518.27 Q607.858 1513.66 613.669 1513.66 Z" fill="#000000" fill-rule="nonzero" fill-opacity="1" /><path clip-path="url(#clip820)" d="M643.83 1517.37 Q640.219 1517.37 638.391 1520.93 Q636.585 1524.47 636.585 1531.6 Q636.585 1538.71 638.391 1542.27 Q640.219 1545.82 643.83 1545.82 Q647.465 1545.82 649.27 1542.27 Q651.099 1538.71 651.099 1531.6 Q651.099 1524.47 649.27 1520.93 Q647.465 1517.37 643.83 1517.37 M643.83 1513.66 Q649.641 1513.66 652.696 1518.27 Q655.775 1522.85 655.775 1531.6 Q655.775 1540.33 652.696 1544.94 Q649.641 1549.52 643.83 1549.52 Q638.02 1549.52 634.942 1544.94 Q631.886 1540.33 631.886 1531.6 Q631.886 1522.85 634.942 1518.27 Q638.02 1513.66 643.83 1513.66 Z" fill="#000000" fill-rule="nonzero" fill-opacity="1" /><path clip-path="url(#clip820)" d="M997.239 1544.91 L1013.56 1544.91 L1013.56 1548.85 L991.614 1548.85 L991.614 1544.91 Q994.276 1542.16 998.859 1537.53 Q1003.47 1532.88 1004.65 1531.53 Q1006.89 1529.01 1007.77 1527.27 Q1008.67 1525.51 1008.67 1523.82 Q1008.67 1521.07 1006.73 1519.33 Q1004.81 1517.6 1001.71 1517.6 Q999.507 1517.6 997.054 1518.36 Q994.623 1519.13 991.845 1520.68 L991.845 1515.95 Q994.67 1514.82 997.123 1514.24 Q999.577 1513.66 1001.61 1513.66 Q1006.98 1513.66 1010.18 1516.35 Q1013.37 1519.03 1013.37 1523.52 Q1013.37 1525.65 1012.56 1527.57 Q1011.78 1529.47 1009.67 1532.07 Q1009.09 1532.74 1005.99 1535.95 Q1002.89 1539.15 997.239 1544.91 Z" fill="#000000" fill-rule="nonzero" fill-opacity="1" /><path clip-path="url(#clip820)" d="M1033.37 1517.37 Q1029.76 1517.37 1027.93 1520.93 Q1026.13 1524.47 1026.13 1531.6 Q1026.13 1538.71 1027.93 1542.27 Q1029.76 1545.82 1033.37 1545.82 Q1037.01 1545.82 1038.81 1542.27 Q1040.64 1538.71 1040.64 1531.6 Q1040.64 1524.47 1038.81 1520.93 Q1037.01 1517.37 1033.37 1517.37 M1033.37 1513.66 Q1039.18 1513.66 1042.24 1518.27 Q1045.32 1522.85 1045.32 1531.6 Q1045.32 1540.33 1042.24 1544.94 Q1039.18 1549.52 1033.37 1549.52 Q1027.56 1549.52 1024.48 1544.94 Q1021.43 1540.33 1021.43 1531.6 Q1021.43 1522.85 1024.48 1518.27 Q1027.56 1513.66 1033.37 1513.66 Z" fill="#000000" fill-rule="nonzero" fill-opacity="1" /><path clip-path="url(#clip820)" d="M1063.53 1517.37 Q1059.92 1517.37 1058.1 1520.93 Q1056.29 1524.47 1056.29 1531.6 Q1056.29 1538.71 1058.1 1542.27 Q1059.92 1545.82 1063.53 1545.82 Q1067.17 1545.82 1068.97 1542.27 Q1070.8 1538.71 1070.8 1531.6 Q1070.8 1524.47 1068.97 1520.93 Q1067.17 1517.37 1063.53 1517.37 M1063.53 1513.66 Q1069.35 1513.66 1072.4 1518.27 Q1075.48 1522.85 1075.48 1531.6 Q1075.48 1540.33 1072.4 1544.94 Q1069.35 1549.52 1063.53 1549.52 Q1057.72 1549.52 1054.65 1544.94 Q1051.59 1540.33 1051.59 1531.6 Q1051.59 1522.85 1054.65 1518.27 Q1057.72 1513.66 1063.53 1513.66 Z" fill="#000000" fill-rule="nonzero" fill-opacity="1" /><path clip-path="url(#clip820)" d="M1426.14 1530.21 Q1429.5 1530.93 1431.38 1533.2 Q1433.27 1535.47 1433.27 1538.8 Q1433.27 1543.92 1429.76 1546.72 Q1426.24 1549.52 1419.76 1549.52 Q1417.58 1549.52 1415.27 1549.08 Q1412.97 1548.66 1410.52 1547.81 L1410.52 1543.29 Q1412.46 1544.43 1414.78 1545.01 Q1417.09 1545.58 1419.62 1545.58 Q1424.02 1545.58 1426.31 1543.85 Q1428.62 1542.11 1428.62 1538.8 Q1428.62 1535.75 1426.47 1534.03 Q1424.34 1532.3 1420.52 1532.3 L1416.49 1532.3 L1416.49 1528.45 L1420.71 1528.45 Q1424.15 1528.45 1425.98 1527.09 Q1427.81 1525.7 1427.81 1523.11 Q1427.81 1520.45 1425.91 1519.03 Q1424.04 1517.6 1420.52 1517.6 Q1418.6 1517.6 1416.4 1518.01 Q1414.2 1518.43 1411.56 1519.31 L1411.56 1515.14 Q1414.22 1514.4 1416.54 1514.03 Q1418.88 1513.66 1420.94 1513.66 Q1426.26 1513.66 1429.36 1516.09 Q1432.46 1518.5 1432.46 1522.62 Q1432.46 1525.49 1430.82 1527.48 Q1429.18 1529.45 1426.14 1530.21 Z" fill="#000000" fill-rule="nonzero" fill-opacity="1" /><path clip-path="url(#clip820)" d="M1452.14 1517.37 Q1448.53 1517.37 1446.7 1520.93 Q1444.89 1524.47 1444.89 1531.6 Q1444.89 1538.71 1446.7 1542.27 Q1448.53 1545.82 1452.14 1545.82 Q1455.77 1545.82 1457.58 1542.27 Q1459.41 1538.71 1459.41 1531.6 Q1459.41 1524.47 1457.58 1520.93 Q1455.77 1517.37 1452.14 1517.37 M1452.14 1513.66 Q1457.95 1513.66 1461.01 1518.27 Q1464.08 1522.85 1464.08 1531.6 Q1464.08 1540.33 1461.01 1544.94 Q1457.95 1549.52 1452.14 1549.52 Q1446.33 1549.52 1443.25 1544.94 Q1440.2 1540.33 1440.2 1531.6 Q1440.2 1522.85 1443.25 1518.27 Q1446.33 1513.66 1452.14 1513.66 Z" fill="#000000" fill-rule="nonzero" fill-opacity="1" /><path clip-path="url(#clip820)" d="M1482.3 1517.37 Q1478.69 1517.37 1476.86 1520.93 Q1475.06 1524.47 1475.06 1531.6 Q1475.06 1538.71 1476.86 1542.27 Q1478.69 1545.82 1482.3 1545.82 Q1485.94 1545.82 1487.74 1542.27 Q1489.57 1538.71 1489.57 1531.6 Q1489.57 1524.47 1487.74 1520.93 Q1485.94 1517.37 1482.3 1517.37 M1482.3 1513.66 Q1488.11 1513.66 1491.17 1518.27 Q1494.25 1522.85 1494.25 1531.6 Q1494.25 1540.33 1491.17 1544.94 Q1488.11 1549.52 1482.3 1549.52 Q1476.49 1549.52 1473.41 1544.94 Q1470.36 1540.33 1470.36 1531.6 Q1470.36 1522.85 1473.41 1518.27 Q1476.49 1513.66 1482.3 1513.66 Z" fill="#000000" fill-rule="nonzero" fill-opacity="1" /><path clip-path="url(#clip820)" d="M1844.31 1518.36 L1832.5 1536.81 L1844.31 1536.81 L1844.31 1518.36 M1843.08 1514.29 L1848.96 1514.29 L1848.96 1536.81 L1853.89 1536.81 L1853.89 1540.7 L1848.96 1540.7 L1848.96 1548.85 L1844.31 1548.85 L1844.31 1540.7 L1828.71 1540.7 L1828.71 1536.19 L1843.08 1514.29 Z" fill="#000000" fill-rule="nonzero" fill-opacity="1" /><path clip-path="url(#clip820)" d="M1871.62 1517.37 Q1868.01 1517.37 1866.18 1520.93 Q1864.38 1524.47 1864.38 1531.6 Q1864.38 1538.71 1866.18 1542.27 Q1868.01 1545.82 1871.62 1545.82 Q1875.26 1545.82 1877.06 1542.27 Q1878.89 1538.71 1878.89 1531.6 Q1878.89 1524.47 1877.06 1520.93 Q1875.26 1517.37 1871.62 1517.37 M1871.62 1513.66 Q1877.43 1513.66 1880.49 1518.27 Q1883.57 1522.85 1883.57 1531.6 Q1883.57 1540.33 1880.49 1544.94 Q1877.43 1549.52 1871.62 1549.52 Q1865.81 1549.52 1862.74 1544.94 Q1859.68 1540.33 1859.68 1531.6 Q1859.68 1522.85 1862.74 1518.27 Q1865.81 1513.66 1871.62 1513.66 Z" fill="#000000" fill-rule="nonzero" fill-opacity="1" /><path clip-path="url(#clip820)" d="M1901.79 1517.37 Q1898.18 1517.37 1896.35 1520.93 Q1894.54 1524.47 1894.54 1531.6 Q1894.54 1538.71 1896.35 1542.27 Q1898.18 1545.82 1901.79 1545.82 Q1905.42 1545.82 1907.23 1542.27 Q1909.06 1538.71 1909.06 1531.6 Q1909.06 1524.47 1907.23 1520.93 Q1905.42 1517.37 1901.79 1517.37 M1901.79 1513.66 Q1907.6 1513.66 1910.65 1518.27 Q1913.73 1522.85 1913.73 1531.6 Q1913.73 1540.33 1910.65 1544.94 Q1907.6 1549.52 1901.79 1549.52 Q1895.98 1549.52 1892.9 1544.94 Q1889.84 1540.33 1889.84 1531.6 Q1889.84 1522.85 1892.9 1518.27 Q1895.98 1513.66 1901.79 1513.66 Z" fill="#000000" fill-rule="nonzero" fill-opacity="1" /><path clip-path="url(#clip820)" d="M2249.67 1514.29 L2268.03 1514.29 L2268.03 1518.22 L2253.96 1518.22 L2253.96 1526.7 Q2254.98 1526.35 2255.99 1526.19 Q2257.01 1526 2258.03 1526 Q2263.82 1526 2267.2 1529.17 Q2270.58 1532.34 2270.58 1537.76 Q2270.58 1543.34 2267.1 1546.44 Q2263.63 1549.52 2257.31 1549.52 Q2255.14 1549.52 2252.87 1549.15 Q2250.62 1548.78 2248.22 1548.04 L2248.22 1543.34 Q2250.3 1544.47 2252.52 1545.03 Q2254.74 1545.58 2257.22 1545.58 Q2261.23 1545.58 2263.56 1543.48 Q2265.9 1541.37 2265.9 1537.76 Q2265.9 1534.15 2263.56 1532.04 Q2261.23 1529.94 2257.22 1529.94 Q2255.35 1529.94 2253.47 1530.35 Q2251.62 1530.77 2249.67 1531.65 L2249.67 1514.29 Z" fill="#000000" fill-rule="nonzero" fill-opacity="1" /><path clip-path="url(#clip820)" d="M2289.79 1517.37 Q2286.18 1517.37 2284.35 1520.93 Q2282.54 1524.47 2282.54 1531.6 Q2282.54 1538.71 2284.35 1542.27 Q2286.18 1545.82 2289.79 1545.82 Q2293.42 1545.82 2295.23 1542.27 Q2297.06 1538.71 2297.06 1531.6 Q2297.06 1524.47 2295.23 1520.93 Q2293.42 1517.37 2289.79 1517.37 M2289.79 1513.66 Q2295.6 1513.66 2298.66 1518.27 Q2301.73 1522.85 2301.73 1531.6 Q2301.73 1540.33 2298.66 1544.94 Q2295.6 1549.52 2289.79 1549.52 Q2283.98 1549.52 2280.9 1544.94 Q2277.85 1540.33 2277.85 1531.6 Q2277.85 1522.85 2280.9 1518.27 Q2283.98 1513.66 2289.79 1513.66 Z" fill="#000000" fill-rule="nonzero" fill-opacity="1" /><path clip-path="url(#clip820)" d="M2319.95 1517.37 Q2316.34 1517.37 2314.51 1520.93 Q2312.71 1524.47 2312.71 1531.6 Q2312.71 1538.71 2314.51 1542.27 Q2316.34 1545.82 2319.95 1545.82 Q2323.59 1545.82 2325.39 1542.27 Q2327.22 1538.71 2327.22 1531.6 Q2327.22 1524.47 2325.39 1520.93 Q2323.59 1517.37 2319.95 1517.37 M2319.95 1513.66 Q2325.76 1513.66 2328.82 1518.27 Q2331.9 1522.85 2331.9 1531.6 Q2331.9 1540.33 2328.82 1544.94 Q2325.76 1549.52 2319.95 1549.52 Q2314.14 1549.52 2311.06 1544.94 Q2308.01 1540.33 2308.01 1531.6 Q2308.01 1522.85 2311.06 1518.27 Q2314.14 1513.66 2319.95 1513.66 Z" fill="#000000" fill-rule="nonzero" fill-opacity="1" /><polyline clip-path="url(#clip820)" style="stroke:#000000; stroke-linecap:round; stroke-linejoin:round; stroke-width:4; stroke-opacity:1; fill:none" points="137.362,1486.45 137.362,47.2441 "/>
<polyline clip-path="url(#clip820)" style="stroke:#000000; stroke-linecap:round; stroke-linejoin:round; stroke-width:4; stroke-opacity:1; fill:none" points="137.362,1274.16 156.26,1274.16 "/>
<polyline clip-path="url(#clip820)" style="stroke:#000000; stroke-linecap:round; stroke-linejoin:round; stroke-width:4; stroke-opacity:1; fill:none" points="137.362,999.331 156.26,999.331 "/>
<polyline clip-path="url(#clip820)" style="stroke:#000000; stroke-linecap:round; stroke-linejoin:round; stroke-width:4; stroke-opacity:1; fill:none" points="137.362,724.5 156.26,724.5 "/>
<polyline clip-path="url(#clip820)" style="stroke:#000000; stroke-linecap:round; stroke-linejoin:round; stroke-width:4; stroke-opacity:1; fill:none" points="137.362,449.669 156.26,449.669 "/>
<polyline clip-path="url(#clip820)" style="stroke:#000000; stroke-linecap:round; stroke-linejoin:round; stroke-width:4; stroke-opacity:1; fill:none" points="137.362,174.839 156.26,174.839 "/>
<path clip-path="url(#clip820)" d="M89.4178 1259.96 Q85.8068 1259.96 83.9781 1263.52 Q82.1725 1267.07 82.1725 1274.2 Q82.1725 1281.3 83.9781 1284.87 Q85.8068 1288.41 89.4178 1288.41 Q93.0521 1288.41 94.8576 1284.87 Q96.6863 1281.3 96.6863 1274.2 Q96.6863 1267.07 94.8576 1263.52 Q93.0521 1259.96 89.4178 1259.96 M89.4178 1256.26 Q95.228 1256.26 98.2835 1260.86 Q101.362 1265.45 101.362 1274.2 Q101.362 1282.92 98.2835 1287.53 Q95.228 1292.11 89.4178 1292.11 Q83.6077 1292.11 80.529 1287.53 Q77.4735 1282.92 77.4735 1274.2 Q77.4735 1265.45 80.529 1260.86 Q83.6077 1256.26 89.4178 1256.26 Z" fill="#000000" fill-rule="nonzero" fill-opacity="1" /><path clip-path="url(#clip820)" d="M94.2326 997.976 Q97.5891 998.694 99.4641 1000.96 Q101.362 1003.23 101.362 1006.56 Q101.362 1011.68 97.8437 1014.48 Q94.3252 1017.28 87.8438 1017.28 Q85.6679 1017.28 83.3531 1016.84 Q81.0614 1016.43 78.6077 1015.57 L78.6077 1011.06 Q80.5522 1012.19 82.867 1012.77 Q85.1818 1013.35 87.7049 1013.35 Q92.103 1013.35 94.3947 1011.61 Q96.7095 1009.87 96.7095 1006.56 Q96.7095 1003.51 94.5567 1001.8 Q92.4271 1000.06 88.6077 1000.06 L84.5799 1000.06 L84.5799 996.217 L88.7928 996.217 Q92.2419 996.217 94.0706 994.851 Q95.8993 993.463 95.8993 990.87 Q95.8993 988.208 94.0012 986.796 Q92.1262 985.361 88.6077 985.361 Q86.6864 985.361 84.4873 985.777 Q82.2883 986.194 79.6494 987.074 L79.6494 982.907 Q82.3114 982.166 84.6262 981.796 Q86.9642 981.426 89.0243 981.426 Q94.3484 981.426 97.4502 983.856 Q100.552 986.264 100.552 990.384 Q100.552 993.254 98.9085 995.245 Q97.265 997.213 94.2326 997.976 Z" fill="#000000" fill-rule="nonzero" fill-opacity="1" /><path clip-path="url(#clip820)" d="M89.8345 722.637 Q86.6864 722.637 84.8345 724.789 Q83.0058 726.942 83.0058 730.692 Q83.0058 734.419 84.8345 736.595 Q86.6864 738.748 89.8345 738.748 Q92.9826 738.748 94.8113 736.595 Q96.6632 734.419 96.6632 730.692 Q96.6632 726.942 94.8113 724.789 Q92.9826 722.637 89.8345 722.637 M99.1169 707.984 L99.1169 712.243 Q97.3576 711.41 95.5521 710.97 Q93.7697 710.53 92.0104 710.53 Q87.3808 710.53 84.9271 713.655 Q82.4966 716.78 82.1494 723.1 Q83.5151 721.086 85.5753 720.021 Q87.6354 718.933 90.1123 718.933 Q95.3206 718.933 98.3298 722.104 Q101.362 725.252 101.362 730.692 Q101.362 736.016 98.2141 739.234 Q95.066 742.451 89.8345 742.451 Q83.8392 742.451 80.6679 737.868 Q77.4966 733.262 77.4966 724.535 Q77.4966 716.34 81.3855 711.479 Q85.2743 706.595 91.8252 706.595 Q93.5845 706.595 95.3669 706.942 Q97.1724 707.289 99.1169 707.984 Z" fill="#000000" fill-rule="nonzero" fill-opacity="1" /><path clip-path="url(#clip820)" d="M79.742 466.232 L79.742 461.973 Q81.5012 462.806 83.3068 463.246 Q85.1123 463.686 86.8484 463.686 Q91.478 463.686 93.9086 460.584 Q96.3623 457.459 96.7095 451.116 Q95.3669 453.107 93.3067 454.172 Q91.2465 455.236 88.7466 455.236 Q83.5614 455.236 80.529 452.112 Q77.5198 448.963 77.5198 443.524 Q77.5198 438.2 80.6679 434.982 Q83.816 431.764 89.0475 431.764 Q95.0428 431.764 98.1909 436.371 Q101.362 440.954 101.362 449.704 Q101.362 457.875 97.4734 462.76 Q93.6076 467.621 87.0567 467.621 Q85.2975 467.621 83.492 467.273 Q81.6864 466.926 79.742 466.232 M89.0475 451.579 Q92.1956 451.579 94.0243 449.426 Q95.8761 447.274 95.8761 443.524 Q95.8761 439.797 94.0243 437.644 Q92.1956 435.468 89.0475 435.468 Q85.8993 435.468 84.0475 437.644 Q82.2188 439.797 82.2188 443.524 Q82.2188 447.274 84.0475 449.426 Q85.8993 451.579 89.0475 451.579 Z" fill="#000000" fill-rule="nonzero" fill-opacity="1" /><path clip-path="url(#clip820)" d="M51.6634 188.184 L59.3023 188.184 L59.3023 161.818 L50.9921 163.485 L50.9921 159.225 L59.256 157.559 L63.9319 157.559 L63.9319 188.184 L71.5707 188.184 L71.5707 192.119 L51.6634 192.119 L51.6634 188.184 Z" fill="#000000" fill-rule="nonzero" fill-opacity="1" /><path clip-path="url(#clip820)" d="M85.0429 188.184 L101.362 188.184 L101.362 192.119 L79.4179 192.119 L79.4179 188.184 Q82.0799 185.429 86.6632 180.799 Q91.2697 176.147 92.4502 174.804 Q94.6956 172.281 95.5752 170.545 Q96.478 168.786 96.478 167.096 Q96.478 164.341 94.5336 162.605 Q92.6123 160.869 89.5104 160.869 Q87.3114 160.869 84.8577 161.633 Q82.4271 162.397 79.6494 163.948 L79.6494 159.225 Q82.4734 158.091 84.9271 157.512 Q87.3808 156.934 89.4178 156.934 Q94.7882 156.934 97.9826 159.619 Q101.177 162.304 101.177 166.795 Q101.177 168.924 100.367 170.846 Q99.5798 172.744 97.4734 175.336 Q96.8947 176.008 93.7928 179.225 Q90.691 182.42 85.0429 188.184 Z" fill="#000000" fill-rule="nonzero" fill-opacity="1" /><polyline clip-path="url(#clip822)" style="stroke:#009af9; stroke-linecap:round; stroke-linejoin:round; stroke-width:4; stroke-opacity:1; fill:none" points="200.062,1258.67 204.25,1251.3 208.439,1263.37 212.627,1307.99 216.816,1286.9 221.004,1243.21 225.192,1243.82 229.381,1267.41 233.569,1281.01 237.757,1276.71 241.946,1299.69 246.134,1336.51 250.322,1358.59 254.511,1321.51 258.699,1320.8 262.888,1315.21 267.076,1345.96 271.264,1349.51 275.453,1326.94 279.641,1349.82 283.829,1325.45 288.018,1365.74 292.206,1407.94 296.394,1411.01 300.583,1442.38 304.771,1411.01 308.96,1445.72 313.148,1412.74 317.336,1439.83 321.525,1416.2 325.713,1428.6 329.901,1439.71 334.09,1437.65 338.278,1399.37 342.466,1404.44 346.655,1394.96 350.843,1357.54 355.032,1355.98 359.22,1386.76 363.408,1432.43 367.597,1388.07 371.785,1344.47 375.973,1337.5 380.162,1338.11 384.35,1321.76 388.538,1336.27 392.727,1372.2 396.915,1362.37 401.104,1387.56 405.292,1409.19 409.48,1405.25 413.669,1417.9 417.857,1386.98 422.045,1426.23 426.234,1433.99 430.422,1402.06 434.61,1394.08 438.799,1384.93 442.987,1341.39 447.176,1368.45 451.364,1357.86 455.552,1396.32 459.741,1367.51 463.929,1343.47 468.117,1299.51 472.306,1336.48 476.494,1362.65 480.682,1346.67 484.871,1389.3 489.059,1400.69 493.248,1408.04 497.436,1425.25 501.624,1411.52 505.813,1376.36 510.001,1392.53 514.189,1408.92 518.378,1386.83 522.566,1357.07 526.755,1338.08 530.943,1302.7 535.131,1322.26 539.32,1311.75 543.508,1343.65 547.696,1319.59 551.885,1323.75 556.073,1299.65 560.261,1299.58 564.45,1301.94 568.638,1307.43 572.827,1276.35 577.015,1303.06 581.203,1331.46 585.392,1289.61 589.58,1276.32 593.768,1234.27 597.957,1237.16 602.145,1195.57 606.333,1227.88 610.522,1220.29 614.71,1241.17 618.899,1262.04 623.087,1229.21 627.275,1237.95 631.464,1258.27 635.652,1260.2 639.84,1288.12 644.029,1280.64 648.217,1302.49 652.405,1335.19 656.594,1297.34 660.782,1320.3 664.971,1297.41 669.159,1280.97 673.347,1282.6 677.536,1264.73 681.724,1268.09 685.912,1255.28 690.101,1233.22 694.289,1245.84 698.477,1233.93 702.666,1202.37 706.854,1244.28 711.043,1263.77 715.231,1263.25 719.419,1246.79 723.608,1226.13 727.796,1225.27 731.984,1246.17 736.173,1259.06 740.361,1265.45 744.549,1307.78 748.738,1317.91 752.926,1291.39 757.115,1323.63 761.303,1346.72 765.491,1390.06 769.68,1420.13 773.868,1377.44 778.056,1346.52 782.245,1369.67 786.433,1332.26 790.621,1295.6 794.81,1252.54 798.998,1263.98 803.187,1249.63 807.375,1248.66 811.563,1219.47 815.752,1214.81 819.94,1247.4 824.128,1232.38 828.317,1241.43 832.505,1272.41 836.693,1228.26 840.882,1221.36 845.07,1198.08 849.259,1167.12 853.447,1150.03 857.635,1188.6 861.824,1178.87 866.012,1170.82 870.2,1142.26 874.389,1148.69 878.577,1148.03 882.766,1126.62 886.954,1082.41 891.142,1080.04 895.331,1072.65 899.519,1055.96 903.707,1042.46 907.896,1079.82 912.084,1116.22 916.272,1118.19 920.461,1101.98 924.649,1060.34 928.838,1020.71 933.026,1022.24 937.214,1029.32 941.403,1047.48 945.591,1068.61 949.779,1063.18 953.968,1072.32 958.156,1081.06 962.344,1096.25 966.533,1071.88 970.721,1042.4 974.91,1014.63 979.098,991.449 983.286,995.26 987.475,1024.19 991.663,1032.94 995.851,989.91 1000.04,1002.23 1004.23,967.55 1008.42,969.146 1012.6,987.183 1016.79,995.962 1020.98,1014.38 1025.17,1019.45 1029.36,1006.72 1033.55,963.65 1037.74,940.1 1041.92,983.513 1046.11,947.778 1050.3,921.939 1054.49,900.173 1058.68,901.215 1062.87,933.734 1067.05,965.138 1071.24,946.964 1075.43,946.102 1079.62,939.068 1083.81,973.142 1088,1018 1092.18,1032.82 1096.37,1074.55 1100.56,1052.19 1104.75,1023.41 1108.94,980.387 1113.13,1000.62 1117.31,969.344 1121.5,1009.02 1125.69,1006.44 1129.88,1052.08 1134.07,1089.93 1138.26,1071.04 1142.44,1044.5 1146.63,1034.57 1150.82,1005 1155.01,1033.72 1159.2,1022.44 1163.39,1048.82 1167.57,1089.58 1171.76,1057.68 1175.95,1060.3 1180.14,1046.15 1184.33,1006.33 1188.52,961.282 1192.7,944.84 1196.89,974.828 1201.08,957.453 1205.27,925.211 1209.46,953.882 1213.65,966.226 1217.83,981.199 1222.02,983.207 1226.21,940.983 1230.4,903.976 1234.59,915.917 1238.78,910.035 1242.96,880.815 1247.15,854.42 1251.34,825.511 1255.53,821.607 1259.72,812.246 1263.91,775.327 1268.1,808.472 1272.28,836.698 1276.47,819.755 1280.66,803.358 1284.85,780.023 1289.04,798.54 1293.23,761.882 1297.41,749.408 1301.6,705.075 1305.79,701.565 1309.98,700.788 1314.17,679.276 1318.36,668.93 1322.54,632.382 1326.73,608.375 1330.92,607.929 1335.11,629.328 1339.3,613.553 1343.49,603.432 1347.67,583.282 1351.86,584.304 1356.05,552.243 1360.24,566.91 1364.43,554.191 1368.62,564.903 1372.8,524.547 1376.99,492.63 1381.18,533.431 1385.37,555.73 1389.56,562.046 1393.75,586.996 1397.93,558.279 1402.12,594.76 1406.31,555.264 1410.5,564.831 1414.69,605.123 1418.88,584.564 1423.06,562.772 1427.25,519.155 1431.44,497.357 1435.63,537.616 1439.82,533.374 1444.01,488.312 1448.19,493.407 1452.38,538.763 1456.57,533.758 1460.76,492.336 1464.95,507.245 1469.14,518.555 1473.32,539.778 1477.51,548.523 1481.7,545.521 1485.89,567.148 1490.08,579.685 1494.27,619.315 1498.46,632.677 1502.64,617.653 1506.83,610.542 1511.02,639.538 1515.21,601.55 1519.4,629.351 1523.59,635.808 1527.77,650.073 1531.96,673.255 1536.15,659.505 1540.34,695.916 1544.53,719.903 1548.72,690.356 1552.9,677.061 1557.09,649.387 1561.28,610.399 1565.47,573.854 1569.66,541.763 1573.85,533.993 1578.03,555.523 1582.22,537.887 1586.41,573.093 1590.6,532.402 1594.79,559.812 1598.98,527.962 1603.16,508.043 1607.35,487.205 1611.54,444.29 1615.73,436.535 1619.92,472.618 1624.11,468.981 1628.29,424.802 1632.48,409.976 1636.67,397.917 1640.86,409.723 1645.05,364.926 1649.24,369.932 1653.42,393.032 1657.61,401.34 1661.8,366.039 1665.99,380.463 1670.18,425.828 1674.37,412.767 1678.55,411.34 1682.74,390.738 1686.93,368.769 1691.12,345.632 1695.31,307.574 1699.5,336.246 1703.69,296.543 1707.87,299.449 1712.06,270.297 1716.25,313.537 1720.44,282.48 1724.63,250.919 1728.82,254.611 1733,231.491 1737.19,186.447 1741.38,223.8 1745.57,248.343 1749.76,268.651 1753.95,273.925 1758.13,256.573 1762.32,227.399 1766.51,222.482 1770.7,227.872 1774.89,198.345 1779.08,182.788 1783.26,189.388 1787.45,212.859 1791.64,225.089 1795.83,181.892 1800.02,202.039 1804.21,239.159 1808.39,252.642 1812.58,286.706 1816.77,289.737 1820.96,333.423 1825.15,379.025 1829.34,371.122 1833.52,362.184 1837.71,404.068 1841.9,411.072 1846.09,443.246 1850.28,413.665 1854.47,393.854 1858.65,387.951 1862.84,348.731 1867.03,379.454 1871.22,340 1875.41,339.068 1879.6,296.174 1883.78,254.601 1887.97,209.745 1892.16,183.717 1896.35,222.94 1900.54,229.04 1904.73,238.197 1908.91,226.292 1913.1,267.433 1917.29,261.11 1921.48,230.698 1925.67,235.18 1929.86,229.412 1934.05,197.197 1938.23,160.842 1942.42,165.7 1946.61,192.525 1950.8,169.349 1954.99,186.804 1959.18,219.492 1963.36,223.565 1967.55,194.113 1971.74,149.148 1975.93,115.036 1980.12,87.9763 1984.31,119.547 1988.49,131.969 1992.68,166.069 1996.87,173.504 2001.06,195.087 2005.25,229.606 2009.44,193.891 2013.62,203.011 2017.81,246.706 2022,249.978 2026.19,214.603 2030.38,231.932 2034.57,264.076 2038.75,273.932 2042.94,296.979 2047.13,326.369 2051.32,371.892 2055.51,328.739 2059.7,368.205 2063.88,395.49 2068.07,378.732 2072.26,385.978 2076.45,387.693 2080.64,423.343 2084.83,401.807 2089.01,422.326 2093.2,457.814 2097.39,415.324 2101.58,451.457 2105.77,423.024 2109.96,468.79 2114.14,439.03 2118.33,434.573 2122.52,395.639 2126.71,357.835 2130.9,395.349 2135.09,361.745 2139.27,389.609 2143.46,346.119 2147.65,386.692 2151.84,369.731 2156.03,333.203 2160.22,302.153 2164.41,313.698 2168.59,337.872 2172.78,296.134 2176.97,283.23 2181.16,313.565 2185.35,283.554 2189.54,291.522 2193.72,283.012 2197.91,325.783 2202.1,304.787 2206.29,299.888 2210.48,283.973 2214.67,324.747 2218.85,328.737 2223.04,363.175 2227.23,357.508 2231.42,358.657 2235.61,376.121 2239.8,386.862 2243.98,370.881 2248.17,353.619 2252.36,337.95 2256.55,371.025 2260.74,375.602 2264.93,346.656 2269.11,341.11 2273.3,386.052 2277.49,390.047 2281.68,369.452 2285.87,339.751 2290.06,360.274 "/>
<polyline clip-path="url(#clip822)" style="stroke:#e26f46; stroke-linecap:round; stroke-linejoin:round; stroke-width:4; stroke-opacity:1; fill:none" points="200.062,1305.02 204.25,1339.27 208.439,1362.8 212.627,1360.74 216.816,1345.11 221.004,1306.47 225.192,1269.83 229.381,1270.54 233.569,1255.86 237.757,1216.32 241.946,1259.19 246.134,1262.29 250.322,1257.44 254.511,1259.26 258.699,1222.64 262.888,1196.98 267.076,1216.02 271.264,1196.08 275.453,1151.69 279.641,1108.73 283.829,1069.8 288.018,1026.93 292.206,998.942 296.394,1004.44 300.583,1003.75 304.771,1046.63 308.96,1035.86 313.148,1020.16 317.336,1063.58 321.525,1069.62 325.713,1103.43 329.901,1113.5 334.09,1121.15 338.278,1140.74 342.466,1180.52 346.655,1148.63 350.843,1135.56 355.032,1179.3 359.22,1139.99 363.408,1105.43 367.597,1064.91 371.785,1031.94 375.973,1045.36 380.162,1037.54 384.35,1005.36 388.538,1019.96 392.727,985.285 396.915,957.266 401.104,922.223 405.292,877.403 409.48,908.247 413.669,920.442 417.857,876.377 422.045,911.114 426.234,878.128 430.422,914.77 434.61,897.078 438.799,913.584 442.987,916.729 447.176,930.537 451.364,903.712 455.552,896.874 459.741,891.419 463.929,906.725 468.117,935.282 472.306,909.876 476.494,939.009 480.682,926.517 484.871,909.01 489.059,881.821 493.248,870.509 497.436,843.977 501.624,828.479 505.813,862.409 510.001,825.82 514.189,800.155 518.378,774.913 522.566,729.126 526.755,696.379 530.943,652.631 535.131,614.106 539.32,582.844 543.508,548.769 547.696,550.079 551.885,594.901 556.073,584.587 560.261,623.921 564.45,628.414 568.638,589.949 572.827,582.919 577.015,593.739 581.203,569.511 585.392,613.546 589.58,656.313 593.768,674.736 597.957,645.528 602.145,610.52 606.333,641.47 610.522,648.457 614.71,631.18 618.899,673.263 623.087,666.984 627.275,671.073 631.464,677.056 635.652,660.439 639.84,700.072 644.029,745.644 648.217,756.548 652.405,750.121 656.594,721.585 660.782,745.61 664.971,769.105 669.159,724.875 673.347,762.839 677.536,748.168 681.724,730.22 685.912,736.08 690.101,738.089 694.289,697.622 698.477,727.673 702.666,757.414 706.854,722.301 711.043,689.323 715.231,709.521 719.419,668.109 723.608,689.79 727.796,714.752 731.984,757.641 736.173,764.263 740.361,762.629 744.549,716.942 748.738,750.6 752.926,783.907 757.115,818.504 761.303,834.064 765.491,815.859 769.68,833.108 773.868,874.84 778.056,879.309 782.245,849.37 786.433,846.12 790.621,811.429 794.81,774.148 798.998,732.248 803.187,768.896 807.375,779.996 811.563,783.311 815.752,790.202 819.94,770.899 824.128,772.647 828.317,770.063 832.505,744.066 836.693,783.724 840.882,815.737 845.07,770.369 849.259,780.963 853.447,797.225 857.635,787.182 861.824,805.89 866.012,851.647 870.2,826.233 874.389,860.017 878.577,904.169 882.766,900.807 886.954,896.978 891.142,934.524 895.331,896.444 899.519,941.225 903.707,934.106 907.896,896.836 912.084,911.357 916.272,915.946 920.461,907.959 924.649,923.687 928.838,893.315 933.026,892.886 937.214,889.559 941.403,915.155 945.591,897.227 949.779,865.162 953.968,869.489 958.156,838.891 962.344,842.681 966.533,846.29 970.721,841.43 974.91,827.886 979.098,812.281 983.286,787.181 987.475,823.544 991.663,858.196 995.851,844.815 1000.04,883.63 1004.23,921.442 1008.42,950.121 1012.6,988.802 1016.79,968.541 1020.98,967.375 1025.17,997.255 1029.36,1037.12 1033.55,1029.06 1037.74,986.932 1041.92,1018.03 1046.11,993.197 1050.3,964.722 1054.49,988.346 1058.68,1026.99 1062.87,1048.05 1067.05,1031.04 1071.24,988.994 1075.43,997.445 1079.62,1003.69 1083.81,971.017 1088,1006.83 1092.18,1049.79 1096.37,1073.19 1100.56,1040.42 1104.75,997.369 1108.94,1007.52 1113.13,1018.99 1117.31,1000.14 1121.5,963.543 1125.69,995.631 1129.88,967.212 1134.07,922.409 1138.26,927.065 1142.44,928.414 1146.63,924.882 1150.82,952.533 1155.01,908.221 1159.2,910.293 1163.39,877.698 1167.57,868.3 1171.76,869.374 1175.95,825.946 1180.14,854.981 1184.33,899.523 1188.52,883.025 1192.7,871.095 1196.89,853.512 1201.08,874.528 1205.27,890.435 1209.46,897.09 1213.65,856.99 1217.83,853.909 1222.02,846.939 1226.21,808.356 1230.4,776.664 1234.59,756.094 1238.78,760.334 1242.96,776.454 1247.15,732.546 1251.34,700.536 1255.53,680.101 1259.72,644.728 1263.91,648.234 1268.1,645.816 1272.28,658.332 1276.47,640.075 1280.66,662.47 1284.85,701.181 1289.04,696.961 1293.23,667.143 1297.41,672.454 1301.6,681.68 1305.79,673.396 1309.98,629.02 1314.17,602.123 1318.36,609.109 1322.54,581.953 1326.73,601.773 1330.92,582.143 1335.11,604.929 1339.3,572.881 1343.49,571.824 1347.67,547.685 1351.86,592.951 1356.05,600.669 1360.24,640.565 1364.43,656.865 1368.62,642.7 1372.8,605.228 1376.99,615.25 1381.18,643.096 1385.37,653.22 1389.56,653.002 1393.75,666.105 1397.93,697.311 1402.12,735.584 1406.31,728.274 1410.5,691.18 1414.69,668.715 1418.88,639.78 1423.06,668.557 1427.25,713.464 1431.44,732.969 1435.63,748.46 1439.82,770.693 1444.01,797.045 1448.19,793.14 1452.38,808.106 1456.57,776.138 1460.76,797.029 1464.95,755.958 1469.14,778.77 1473.32,746.275 1477.51,758.866 1481.7,725.176 1485.89,764.071 1490.08,752.68 1494.27,739.615 1498.46,785.065 1502.64,803.292 1506.83,785.545 1511.02,779.074 1515.21,816.504 1519.4,788.46 1523.59,758.622 1527.77,780.777 1531.96,799.443 1536.15,806.257 1540.34,807.065 1544.53,833.197 1548.72,870.778 1552.9,862.065 1557.09,885.772 1561.28,927.349 1565.47,939.287 1569.66,919.941 1573.85,895.346 1578.03,925.523 1582.22,926.915 1586.41,968.594 1590.6,975.764 1594.79,942.091 1598.98,977.33 1603.16,934.742 1607.35,954.892 1611.54,943.877 1615.73,935.191 1619.92,929.277 1624.11,957.821 1628.29,995.208 1632.48,971.62 1636.67,978.841 1640.86,961.997 1645.05,934.903 1649.24,965.881 1653.42,966.434 1657.61,959.105 1661.8,944.137 1665.99,972.489 1670.18,972.5 1674.37,939.399 1678.55,981.86 1682.74,956.127 1686.93,979.3 1691.12,992.33 1695.31,971.627 1699.5,966.153 1703.69,947.271 1707.87,952.997 1712.06,980.37 1716.25,1023.47 1720.44,1029.84 1724.63,1053.21 1728.82,1085.36 1733,1086.16 1737.19,1053.88 1741.38,1040.94 1745.57,1086.13 1749.76,1042.57 1753.95,1074.6 1758.13,1070.96 1762.32,1071.8 1766.51,1079.41 1770.7,1099.95 1774.89,1145.47 1779.08,1181.68 1783.26,1153.3 1787.45,1164.96 1791.64,1202.62 1795.83,1172.86 1800.02,1189.35 1804.21,1145.66 1808.39,1154.19 1812.58,1153.47 1816.77,1118.38 1820.96,1127.01 1825.15,1149.17 1829.34,1183.9 1833.52,1188.79 1837.71,1146.31 1841.9,1161.53 1846.09,1128.69 1850.28,1133.64 1854.47,1097.91 1858.65,1113.08 1862.84,1149.3 1867.03,1104.46 1871.22,1097.64 1875.41,1113.04 1879.6,1109.85 1883.78,1115.72 1887.97,1071.16 1892.16,1032.86 1896.35,1073.87 1900.54,1110.04 1904.73,1123.3 1908.91,1111.44 1913.1,1143.57 1917.29,1162.71 1921.48,1186.34 1925.67,1211.32 1929.86,1182.47 1934.05,1227.48 1938.23,1247.71 1942.42,1281.43 1946.61,1289.47 1950.8,1258.07 1954.99,1220.47 1959.18,1238.74 1963.36,1236.83 1967.55,1224.27 1971.74,1193.96 1975.93,1218.01 1980.12,1240.37 1984.31,1203.37 1988.49,1164.71 1992.68,1187.39 1996.87,1164.29 2001.06,1149.61 2005.25,1128.08 2009.44,1165.87 2013.62,1208.5 2017.81,1180.95 2022,1202.78 2026.19,1198.34 2030.38,1223.13 2034.57,1204.61 2038.75,1202.97 2042.94,1175.73 2047.13,1220.93 2051.32,1199.26 2055.51,1209.88 2059.7,1227.03 2063.88,1197.36 2068.07,1190.36 2072.26,1170.78 2076.45,1205.81 2080.64,1216.49 2084.83,1231.51 2089.01,1268.26 2093.2,1246.76 2097.39,1231.59 2101.58,1236.17 2105.77,1256.13 2109.96,1275.34 2114.14,1265.35 2118.33,1225.48 2122.52,1198.12 2126.71,1161.08 2130.9,1150.01 2135.09,1113.28 2139.27,1072.14 2143.46,1081.18 2147.65,1043.71 2151.84,1025.44 2156.03,1025.34 2160.22,1010.97 2164.41,1002.09 2168.59,1001.19 2172.78,975.454 2176.97,957.613 2181.16,985.5 2185.35,956.563 2189.54,991.968 2193.72,1012.67 2197.91,989.638 2202.1,1007.31 2206.29,1011.19 2210.48,973.643 2214.67,1005.24 2218.85,993.818 2223.04,956.88 2227.23,970.986 2231.42,990.571 2235.61,998.116 2239.8,1021.9 2243.98,1057.59 2248.17,1033.78 2252.36,1036.3 2256.55,1073.84 2260.74,1029.76 2264.93,1019.48 2269.11,1013.58 2273.3,1049.96 2277.49,1079.46 2281.68,1083.84 2285.87,1128.62 2290.06,1136.39 "/>
<path clip-path="url(#clip820)" d="M211.209 250.738 L485.178 250.738 L485.178 95.2176 L211.209 95.2176  Z" fill="#ffffff" fill-rule="evenodd" fill-opacity="1"/>
<polyline clip-path="url(#clip820)" style="stroke:#000000; stroke-linecap:round; stroke-linejoin:round; stroke-width:4; stroke-opacity:1; fill:none" points="211.209,250.738 485.178,250.738 485.178,95.2176 211.209,95.2176 211.209,250.738 "/>
<polyline clip-path="url(#clip820)" style="stroke:#009af9; stroke-linecap:round; stroke-linejoin:round; stroke-width:4; stroke-opacity:1; fill:none" points="235.824,147.058 383.517,147.058 "/>
<path clip-path="url(#clip820)" d="M421.975 166.745 Q420.17 171.375 418.457 172.787 Q416.744 174.199 413.873 174.199 L410.471 174.199 L410.471 170.634 L412.971 170.634 Q414.73 170.634 415.702 169.8 Q416.674 168.967 417.855 165.865 L418.619 163.921 L408.133 138.412 L412.646 138.412 L420.748 158.689 L428.85 138.412 L433.364 138.412 L421.975 166.745 Z" fill="#000000" fill-rule="nonzero" fill-opacity="1" /><path clip-path="url(#clip820)" d="M440.656 160.402 L448.294 160.402 L448.294 134.037 L439.984 135.703 L439.984 131.444 L448.248 129.778 L452.924 129.778 L452.924 160.402 L460.563 160.402 L460.563 164.338 L440.656 164.338 L440.656 160.402 Z" fill="#000000" fill-rule="nonzero" fill-opacity="1" /><polyline clip-path="url(#clip820)" style="stroke:#e26f46; stroke-linecap:round; stroke-linejoin:round; stroke-width:4; stroke-opacity:1; fill:none" points="235.824,198.898 383.517,198.898 "/>
<path clip-path="url(#clip820)" d="M421.975 218.585 Q420.17 223.215 418.457 224.627 Q416.744 226.039 413.873 226.039 L410.471 226.039 L410.471 222.474 L412.971 222.474 Q414.73 222.474 415.702 221.64 Q416.674 220.807 417.855 217.705 L418.619 215.761 L408.133 190.252 L412.646 190.252 L420.748 210.529 L428.85 190.252 L433.364 190.252 L421.975 218.585 Z" fill="#000000" fill-rule="nonzero" fill-opacity="1" /><path clip-path="url(#clip820)" d="M443.873 212.242 L460.192 212.242 L460.192 216.178 L438.248 216.178 L438.248 212.242 Q440.91 209.488 445.493 204.858 Q450.1 200.205 451.28 198.863 Q453.526 196.34 454.405 194.604 Q455.308 192.844 455.308 191.155 Q455.308 188.4 453.364 186.664 Q451.443 184.928 448.341 184.928 Q446.142 184.928 443.688 185.692 Q441.257 186.455 438.48 188.006 L438.48 183.284 Q441.304 182.15 443.757 181.571 Q446.211 180.993 448.248 180.993 Q453.618 180.993 456.813 183.678 Q460.007 186.363 460.007 190.854 Q460.007 192.983 459.197 194.905 Q458.41 196.803 456.304 199.395 Q455.725 200.067 452.623 203.284 Q449.521 206.479 443.873 212.242 Z" fill="#000000" fill-rule="nonzero" fill-opacity="1" /></svg>
